<svg width="72" height="43" viewBox="0 0 72 43" fill="none" xmlns="http://www.w3.org/2000/svg">
<rect width="72" height="43" rx="3" fill="#AB2734"/>
<path d="M20.0298 32V27.456H10.1418V23.424L19.3898 9.344H24.6378V23.424H27.5498V27.456H24.6378V32H20.0298ZM20.0298 23.424V15.616H19.9658L14.9418 23.424H20.0298ZM33.9433 22.432V18.272H35.5113C37.2713 18.272 39.1593 17.888 39.1593 15.744C39.1593 14.368 37.9113 13.376 36.3433 13.376C34.8393 13.376 33.8153 14.304 33.5273 15.488L28.2473 14.4C29.2393 10.464 32.4713 8.96 36.3113 8.96C40.3433 8.96 43.9593 10.912 43.9593 15.264C43.9593 17.76 42.5833 19.712 40.0873 20.224V20.32C42.8073 20.672 44.3433 22.976 44.3433 25.6C44.3433 30.144 40.6313 32.384 36.1833 32.384C32.1513 32.384 28.9833 30.592 28.0553 26.528L33.1113 25.344C33.4313 26.944 34.4233 27.968 36.4713 27.968C38.5513 27.968 39.5433 26.752 39.5433 25.056C39.5433 22.496 37.2073 22.432 35.0633 22.432H33.9433ZM45.7448 20.672C45.7448 15.296 47.4408 8.96 54.1608 8.96C60.8808 8.96 62.5768 15.296 62.5768 20.672C62.5768 26.048 60.8808 32.384 54.1608 32.384C47.4408 32.384 45.7448 26.048 45.7448 20.672ZM50.5448 20.672C50.5448 23.04 50.7048 27.968 54.1608 27.968C57.6168 27.968 57.7768 23.04 57.7768 20.672C57.7768 18.304 57.6168 13.376 54.1608 13.376C50.7048 13.376 50.5448 18.304 50.5448 20.672Z" fill="white"/>
</svg>
